<svg width="43" height="39" viewBox="0 0 43 39" fill="none" xmlns="http://www.w3.org/2000/svg">
<path fill-rule="evenodd" clip-rule="evenodd" d="M21.8496 8.71985C21.6214 8.64894 21.3789 8.64894 21.1505 8.71985C21.0849 8.74026 20.9694 8.79133 20.7238 8.98969C20.4655 9.1983 20.1493 9.49686 19.6565 9.96407L13.1069 16.174C12.304 16.9353 12.0764 17.1649 11.9181 17.4188C11.7659 17.6631 11.6525 17.9324 11.5825 18.216C11.5097 18.5109 11.5001 18.8448 11.5001 19.9908V26.6588C11.5001 27.8201 11.5011 28.6096 11.5486 29.2195C11.5948 29.8135 11.6786 30.1167 11.7816 30.328C12.0187 30.8151 12.391 31.2123 12.8477 31.4652C13.0459 31.5751 13.3301 31.6644 13.8869 31.7137C14.4587 31.7644 15.1988 31.7655 16.2876 31.7655H16.5001V27.7655C16.5001 24.82 18.7387 22.4321 21.5001 22.4321C24.2615 22.4321 26.5001 24.82 26.5001 27.7655V31.7655H26.7127C27.8014 31.7655 28.5415 31.7644 29.1133 31.7137C29.67 31.6644 29.9543 31.5751 30.1525 31.4652C30.6091 31.2123 30.9814 30.8151 31.2186 30.328C31.3216 30.1167 31.4054 29.8135 31.4517 29.2195C31.499 28.6096 31.5002 27.8201 31.5002 26.6588V19.9908C31.5002 18.8448 31.4905 18.5109 31.4177 18.216C31.3477 17.9324 31.2343 17.6631 31.082 17.4188C30.9238 17.1649 30.6961 16.9353 29.8933 16.174L23.3436 9.96407C22.8509 9.49686 22.5346 9.1983 22.2764 8.98969C22.0308 8.79133 21.9153 8.74026 21.8496 8.71985ZM20.4515 6.15954C21.1364 5.94682 21.8638 5.94682 22.5486 6.15954C23.0238 6.30715 23.4178 6.56673 23.7854 6.86363C24.1316 7.14326 24.5216 7.51298 24.9706 7.93873L31.5541 14.1809C31.5896 14.2145 31.6245 14.2477 31.6591 14.2804C32.3113 14.898 32.8038 15.3646 33.164 15.9425C33.4684 16.431 33.6953 16.9697 33.8353 17.5371C34.0009 18.2081 34.0007 18.9108 34.0002 19.8409C34.0002 19.8903 34.0002 19.9401 34.0002 19.9908V26.7148C34.0002 27.8061 34.0002 28.7069 33.943 29.4403C33.8838 30.202 33.7564 30.9019 33.4372 31.5573C32.9628 32.5315 32.2182 33.3256 31.305 33.8316C30.6904 34.1721 30.0344 34.308 29.3202 34.3712C28.6327 34.4321 27.7883 34.4321 26.765 34.4321H26.2564C26.2467 34.4321 26.2369 34.4321 26.2269 34.4321C26.0755 34.4321 25.8948 34.4323 25.7355 34.4181C25.5509 34.4019 25.2866 34.3599 25.0108 34.2069C24.6683 34.0172 24.389 33.7193 24.2112 33.3541C24.0679 33.0597 24.0285 32.7779 24.0131 32.5809C23.9999 32.4112 24 32.2183 24 32.0568L24.0001 27.7655C24.0001 26.2927 22.8808 25.0988 21.5001 25.0988C20.1194 25.0988 19.0001 26.2927 19.0001 27.7655L19.0001 32.0568C19.0001 32.2183 19.0003 32.4112 18.987 32.5809C18.9717 32.7779 18.9323 33.0597 18.789 33.3541C18.6111 33.7193 18.3319 34.0172 17.9894 34.2069C17.7135 34.3599 17.4493 34.4019 17.2646 34.4181C17.1054 34.4323 16.9246 34.4321 16.7732 34.4321C16.7633 34.4321 16.7535 34.4321 16.7438 34.4321H16.2351C15.2119 34.4321 14.3675 34.4321 13.68 34.3712C12.9658 34.308 12.3098 34.1721 11.6952 33.8316C10.782 33.3256 10.0374 32.5315 9.56302 31.5573C9.2438 30.9019 9.11646 30.202 9.05715 29.4403C9.00006 28.7069 9.00007 27.8061 9.00009 26.7148V19.9908C9.00009 19.9401 9.00006 19.8903 9.00005 19.8409C8.99959 18.9108 8.99925 18.2081 9.1649 17.5371C9.30494 16.9697 9.53175 16.431 9.8362 15.9425C10.1963 15.3646 10.689 14.898 11.341 14.2804C11.3756 14.2477 11.4106 14.2145 11.446 14.1809L18.0296 7.93874C18.4786 7.51298 18.8685 7.14326 19.2148 6.86363C19.5824 6.56673 19.9764 6.30715 20.4515 6.15954Z" fill="#E6E6E6"/>
</svg>
