<svg width="72" height="72" viewBox="0 0 72 72" fill="none" xmlns="http://www.w3.org/2000/svg">
<g clip-path="url(#clip0_196_27)">
<path d="M60 9V51C59.9994 53.6415 59.1273 56.209 57.5188 58.3043C55.9104 60.3996 53.6555 61.9057 51.1039 62.5889C48.5523 63.2722 45.8465 63.0944 43.4063 62.0832C40.966 61.072 38.9275 59.2839 37.607 56.9961C36.2865 54.7084 35.7578 52.0489 36.1028 49.43C36.4478 46.8111 37.6473 44.3793 39.5152 42.5116C41.3831 40.6438 43.8151 39.4446 46.434 39.0999C49.0529 38.7552 51.7124 39.2843 54 40.605V15H27V51C26.9994 53.6415 26.1273 56.209 24.5188 58.3043C22.9104 60.3996 20.6555 61.9057 18.1039 62.5889C15.5523 63.2722 12.8465 63.0944 10.4063 62.0832C7.96598 61.072 5.92753 59.2839 4.60704 56.9961C3.28655 54.7084 2.75781 52.0489 3.10281 49.43C3.44782 46.8111 4.64729 44.3793 6.51521 42.5116C8.38314 40.6438 10.8151 39.4446 13.434 39.0999C16.0529 38.7552 18.7124 39.2843 21 40.605V9H60ZM15 57C16.5913 57 18.1174 56.3679 19.2427 55.2426C20.3679 54.1174 21 52.5913 21 51C21 49.4087 20.3679 47.8826 19.2427 46.7574C18.1174 45.6321 16.5913 45 15 45C13.4087 45 11.8826 45.6321 10.7574 46.7574C9.63216 47.8826 9.00002 49.4087 9.00002 51C9.00002 52.5913 9.63216 54.1174 10.7574 55.2426C11.8826 56.3679 13.4087 57 15 57ZM48 57C49.5913 57 51.1174 56.3679 52.2427 55.2426C53.3679 54.1174 54 52.5913 54 51C54 49.4087 53.3679 47.8826 52.2427 46.7574C51.1174 45.6321 49.5913 45 48 45C46.4087 45 44.8826 45.6321 43.7574 46.7574C42.6322 47.8826 42 49.4087 42 51C42 52.5913 42.6322 54.1174 43.7574 55.2426C44.8826 56.3679 46.4087 57 48 57Z" fill="#A4A4A4"/>
</g>
<defs>
<clipPath id="clip0_196_27">
<rect width="72" height="72" fill="white"/>
</clipPath>
</defs>
</svg>
