<svg width="36" height="36" viewBox="0 0 36 36" fill="none" xmlns="http://www.w3.org/2000/svg">
<g clip-path="url(#clip0_10_138)">
<path d="M30 4.5V25.5C29.9997 26.8207 29.5636 28.1045 28.7594 29.1522C27.9552 30.1998 26.8277 30.9529 25.5519 31.2945C24.2761 31.6361 22.9233 31.5472 21.7031 31.0416C20.483 30.536 19.4638 29.6419 18.8035 28.4981C18.1433 27.3542 17.8789 26.0244 18.0514 24.715C18.2239 23.4056 18.8236 22.1896 19.7576 21.2558C20.6916 20.3219 21.9076 19.7223 23.217 19.55C24.5265 19.3776 25.8562 19.6421 27 20.3025V7.5H13.5V25.5C13.4997 26.8207 13.0636 28.1045 12.2594 29.1522C11.4552 30.1998 10.3277 30.9529 9.05195 31.2945C7.77614 31.6361 6.42327 31.5472 5.20313 31.0416C3.98299 30.536 2.96376 29.6419 2.30352 28.4981C1.64327 27.3542 1.3789 26.0244 1.55141 24.715C1.72391 23.4056 2.32364 22.1896 3.25761 21.2558C4.19157 20.3219 5.40756 19.7223 6.71702 19.55C8.02647 19.3776 9.35621 19.6421 10.5 20.3025V4.5H30ZM7.50001 28.5C8.29566 28.5 9.05872 28.1839 9.62133 27.6213C10.1839 27.0587 10.5 26.2957 10.5 25.5C10.5 24.7044 10.1839 23.9413 9.62133 23.3787C9.05872 22.8161 8.29566 22.5 7.50001 22.5C6.70436 22.5 5.9413 22.8161 5.37869 23.3787C4.81608 23.9413 4.50001 24.7044 4.50001 25.5C4.50001 26.2957 4.81608 27.0587 5.37869 27.6213C5.9413 28.1839 6.70436 28.5 7.50001 28.5ZM24 28.5C24.7957 28.5 25.5587 28.1839 26.1213 27.6213C26.6839 27.0587 27 26.2957 27 25.5C27 24.7044 26.6839 23.9413 26.1213 23.3787C25.5587 22.8161 24.7957 22.5 24 22.5C23.2044 22.5 22.4413 22.8161 21.8787 23.3787C21.3161 23.9413 21 24.7044 21 25.5C21 26.2957 21.3161 27.0587 21.8787 27.6213C22.4413 28.1839 23.2044 28.5 24 28.5Z" fill="#E6E6E6"/>
</g>
<defs>
<clipPath id="clip0_10_138">
<rect width="36" height="36" fill="white"/>
</clipPath>
</defs>
</svg>
