<svg width="19" height="19" viewBox="0 0 19 19" fill="none" xmlns="http://www.w3.org/2000/svg">
<path fill-rule="evenodd" clip-rule="evenodd" d="M12.8985 2.60687C13.2077 2.29771 13.709 2.29771 14.0181 2.60687L16.3931 4.98187C16.7023 5.29104 16.7023 5.79229 16.3931 6.10146L14.0181 8.47645C13.709 8.7856 13.2077 8.7856 12.8985 8.47645C12.5894 8.16731 12.5894 7.66604 12.8985 7.35687L13.922 6.33338H6.21601C4.51806 6.33338 3.16667 7.7228 3.16667 9.5C3.16667 9.93724 2.81222 10.2917 2.375 10.2917C1.93778 10.2917 1.58333 9.93724 1.58333 9.5C1.58333 6.90496 3.58806 4.75005 6.21601 4.75005H13.9221L12.8985 3.72646C12.5894 3.41729 12.5894 2.91604 12.8985 2.60687ZM16.625 8.70833C17.0622 8.70833 17.4167 9.06276 17.4167 9.5C17.4167 12.1349 15.2218 14.2501 12.6333 14.2501H5.07796L6.10146 15.2735C6.41062 15.5827 6.41062 16.084 6.10146 16.3931C5.79229 16.7023 5.29104 16.7023 4.98187 16.3931L2.60687 14.0181C2.29771 13.709 2.29771 13.2077 2.60687 12.8985L4.98187 10.5235C5.29104 10.2144 5.79229 10.2144 6.10146 10.5235C6.41062 10.8327 6.41062 11.334 6.10146 11.6431L5.07787 12.6667H12.6333C14.3706 12.6667 15.8333 11.2373 15.8333 9.5C15.8333 9.06276 16.1878 8.70833 16.625 8.70833Z" fill="#E6E6E6"/>
</svg>
