<svg width="19" height="19" viewBox="0 0 19 19" fill="none" xmlns="http://www.w3.org/2000/svg">
<path fill-rule="evenodd" clip-rule="evenodd" d="M12.8985 2.60687C13.2076 2.29771 13.7089 2.29771 14.018 2.60687L16.393 4.98187C16.7022 5.29104 16.7022 5.79229 16.393 6.10146L14.018 8.47645C13.7089 8.7856 13.2076 8.7856 12.8985 8.47645C12.5893 8.16731 12.5893 7.66604 12.8985 7.35687L13.9219 6.33338H6.21593C4.51798 6.33338 3.16659 7.7228 3.16659 9.5C3.16659 9.93724 2.81214 10.2917 2.37492 10.2917C1.9377 10.2917 1.58325 9.93724 1.58325 9.5C1.58325 6.90496 3.58798 4.75005 6.21593 4.75005H13.922L12.8985 3.72646C12.5893 3.41729 12.5893 2.91604 12.8985 2.60687ZM16.6249 8.70833C17.0622 8.70833 17.4166 9.06276 17.4166 9.5C17.4166 12.1349 15.2217 14.2501 12.6332 14.2501H5.07788L6.10138 15.2735C6.41054 15.5827 6.41054 16.084 6.10138 16.3931C5.79221 16.7023 5.29096 16.7023 4.98179 16.3931L2.60679 14.0181C2.29763 13.709 2.29763 13.2077 2.60679 12.8985L4.98179 10.5235C5.29096 10.2144 5.79221 10.2144 6.10138 10.5235C6.41054 10.8327 6.41054 11.334 6.10138 11.6431L5.07779 12.6667H12.6332C14.3706 12.6667 15.8333 11.2373 15.8333 9.5C15.8333 9.06276 16.1877 8.70833 16.6249 8.70833Z" fill="#E81C5A"/>
</svg>
