<svg width="37" height="37" viewBox="0 0 37 37" fill="none" xmlns="http://www.w3.org/2000/svg">
<path d="M16.6038 28.2125C14.3078 28.2125 12.0633 27.5317 10.1543 26.2561C8.24523 24.9806 6.75731 23.1674 5.87867 21.0462C5.00002 18.9251 4.77013 16.5908 5.21806 14.339C5.66599 12.0871 6.77161 10.0186 8.39513 8.39513C10.0186 6.77161 12.0871 5.66599 14.339 5.21806C16.5908 4.77013 18.9251 5.00002 21.0462 5.87867C23.1674 6.75731 24.9806 8.24523 26.2561 10.1543C27.5317 12.0633 28.2125 14.3078 28.2125 16.6038C28.2125 18.1282 27.9122 19.6378 27.3288 21.0462C26.7455 22.4547 25.8903 23.7344 24.8124 24.8124C23.7344 25.8903 22.4547 26.7455 21.0462 27.3288C19.6378 27.9122 18.1282 28.2125 16.6038 28.2125ZM16.6038 7.32292C14.7743 7.32292 12.9859 7.86543 11.4647 8.88183C9.94358 9.89822 8.75798 11.3429 8.05787 13.0331C7.35776 14.7233 7.17458 16.5831 7.53149 18.3775C7.8884 20.1718 8.76938 21.82 10.063 23.1136C11.3567 24.4072 13.0048 25.2883 14.7992 25.6452C16.5934 26.0021 18.4533 25.8189 20.1436 25.1189C21.8337 24.4186 23.2784 23.2331 24.2948 21.7119C25.3113 20.1908 25.8538 18.4024 25.8538 16.5729C25.8538 14.1197 24.8793 11.7669 23.1444 10.0322C21.4098 8.29746 19.057 7.32292 16.6038 7.32292Z" fill="#E6E6E6"/>
<path d="M30.8334 31.9896C30.6815 31.9902 30.5309 31.9606 30.3906 31.9023C30.2503 31.8442 30.123 31.7585 30.0163 31.6504L23.6492 25.2833C23.445 25.0641 23.3338 24.7741 23.339 24.4746C23.3443 24.175 23.4658 23.8894 23.6776 23.6774C23.8894 23.4656 24.1752 23.3442 24.4748 23.339C24.7743 23.3337 25.0642 23.4449 25.2834 23.6492L31.6505 30.0162C31.8669 30.233 31.9886 30.5269 31.9886 30.8333C31.9886 31.1397 31.8669 31.4335 31.6505 31.6504C31.5438 31.7585 31.4165 31.8442 31.2762 31.9023C31.1359 31.9606 30.9852 31.9902 30.8334 31.9896Z" fill="#E6E6E6"/>
<circle cx="6.5" cy="6.5" r="6.5" transform="matrix(1 0 0 -1 10 23)" fill="#E6E6E6"/>
</svg>
