<svg width="19" height="19" viewBox="0 0 19 19" fill="none" xmlns="http://www.w3.org/2000/svg">
<path d="M2.375 11.8996V13.0871C2.375 13.2539 2.50503 13.3839 2.67188 13.3839H4.37891C5.38116 13.3839 6.21597 12.9202 6.90234 12.2148C7.60772 11.5095 8.18247 10.5636 8.75781 9.654C9.22153 8.91181 9.68584 8.20644 10.168 7.6685C10.6317 7.11156 11.096 6.77787 11.6523 6.77787H13.2293V8.13222C13.2293 8.55912 13.5262 8.63334 13.8789 8.35487L16.4582 6.20253C16.6808 6.01669 16.6808 5.66459 16.4582 5.47875L13.8789 3.34481C13.5262 3.04794 13.2293 3.12216 13.2293 3.56747V4.99603H11.6523C10.6317 4.99603 9.83369 5.44134 9.12891 6.16512C8.44253 6.8705 7.81138 7.81634 7.25503 8.70697C6.77231 9.46756 6.327 10.1913 5.84488 10.7293C5.38116 11.2672 4.91684 11.6015 4.37891 11.6015H2.67188C2.50503 11.6015 2.375 11.7315 2.375 11.8984L2.375 11.8996ZM2.375 5.27509V6.46259C2.375 6.62944 2.50503 6.75947 2.67188 6.75947H4.37891C5.21372 6.75947 5.88169 7.57587 6.60547 8.63334C6.62388 8.57753 6.64288 8.54072 6.66128 8.50331C6.67969 8.48491 6.7355 8.4475 6.75391 8.41069C7.03238 7.94697 7.34766 7.50166 7.64453 7.01894C7.19922 6.44359 6.77231 5.92406 6.21597 5.57137C5.67803 5.20028 5.08428 4.99603 4.37891 4.99603H2.67188C2.46762 4.99603 2.375 5.08866 2.375 5.2745L2.375 5.27509ZM13.2293 11.5653H11.6523C10.8359 11.5653 10.1306 10.7673 9.42578 9.72822C9.38838 9.78403 9.36997 9.82084 9.35156 9.85825C9.31416 9.89566 9.29575 9.93247 9.25894 9.98828C9.12891 10.2109 8.96206 10.452 8.83203 10.6747C8.68359 10.8789 8.53516 11.12 8.40513 11.3242C8.83203 11.8996 9.27734 12.4007 9.81528 12.7528C10.3348 13.1239 10.947 13.3649 11.6523 13.3649H13.2293V14.6641C13.2293 15.091 13.5262 15.1836 13.8789 14.8867L16.4582 12.716C16.6808 12.5301 16.6808 12.1964 16.4582 12.0106L13.8789 9.87666C13.5262 9.59819 13.2293 9.654 13.2293 10.0993V11.5653Z" fill="#E6E6E6"/>
</svg>
