<svg width="19" height="19" viewBox="0 0 19 19" fill="none" xmlns="http://www.w3.org/2000/svg">
<path d="M14.535 15.3266C14.3273 15.3258 14.1283 15.2433 13.9808 15.0971C13.8334 14.9487 13.7506 14.7481 13.7506 14.5389C13.7506 14.3298 13.8334 14.1291 13.9808 13.9808C14.5697 13.3926 15.0368 12.6941 15.3555 11.9253C15.6743 11.1564 15.8383 10.3323 15.8383 9.49997C15.8383 8.66767 15.6743 7.84354 15.3555 7.07468C15.0368 6.30583 14.5697 5.60733 13.9808 5.01914C13.8511 4.86769 13.7834 4.67288 13.791 4.47364C13.7987 4.27439 13.8813 4.08539 14.0223 3.9444C14.1633 3.80341 14.3523 3.72081 14.5516 3.71311C14.7508 3.70542 14.9456 3.77319 15.0971 3.90289C16.5812 5.38748 17.415 7.40075 17.415 9.49997C17.415 11.5992 16.5812 13.6125 15.0971 15.0971C15.0231 15.1704 14.9354 15.2285 14.8389 15.2679C14.7425 15.3073 14.6392 15.3272 14.535 15.3266Z" fill="#E6E6E6"/>
<path d="M12.3025 13.0941C12.1977 13.0937 12.0941 13.0725 11.9976 13.0317C11.9012 12.991 11.8137 12.9314 11.7404 12.8566C11.593 12.7083 11.5102 12.5077 11.5102 12.2985C11.5102 12.0894 11.593 11.8887 11.7404 11.7404C12.0348 11.4463 12.2684 11.097 12.4278 10.7126C12.5871 10.3282 12.6691 9.91612 12.6691 9.49997C12.6691 9.08382 12.5871 8.67175 12.4278 8.28733C12.2684 7.9029 12.0348 7.55365 11.7404 7.25955C11.6107 7.10811 11.5429 6.9133 11.5506 6.71405C11.5583 6.51481 11.6409 6.32581 11.7819 6.18482C11.9229 6.04382 12.1119 5.96123 12.3112 5.95353C12.5104 5.94584 12.7052 6.01361 12.8567 6.1433C13.7462 7.03393 14.2458 8.24122 14.2458 9.49997C14.2458 10.7587 13.7462 11.966 12.8567 12.8566C12.7105 13.0058 12.5113 13.0912 12.3025 13.0941Z" fill="#E6E6E6"/>
<path d="M9.00915 3.22999C8.86498 3.16936 8.70608 3.1528 8.5525 3.18239C8.39893 3.21197 8.25756 3.28639 8.14623 3.39624L5.21706 6.33332H3.16665C2.74672 6.33332 2.34399 6.50014 2.04706 6.79707C1.75013 7.094 1.58331 7.49673 1.58331 7.91666V11.0833C1.58331 11.5032 1.75013 11.906 2.04706 12.2029C2.34399 12.4998 2.74672 12.6667 3.16665 12.6667H5.21706L8.14623 15.6037C8.2202 15.6771 8.30793 15.7352 8.40439 15.7746C8.50084 15.814 8.60412 15.8339 8.70831 15.8333C8.81216 15.836 8.91519 15.8143 9.00915 15.77C9.15372 15.7106 9.27748 15.6097 9.36483 15.4801C9.45217 15.3505 9.4992 15.198 9.49998 15.0417V3.95832C9.4992 3.80203 9.45217 3.64946 9.36483 3.51985C9.27748 3.39024 9.15372 3.28938 9.00915 3.22999Z" fill="#E6E6E6"/>
</svg>
