<!DOCTYPE svg PUBLIC "-//W3C//DTD SVG 1.1//EN" "http://www.w3.org/Graphics/SVG/1.1/DTD/svg11.dtd">
<!-- Uploaded to: SVG Repo, www.svgrepo.com, Transformed by: SVG Repo Mixer Tools -->
<svg fill="#000000" version="1.1" id="Capa_1" xmlns="http://www.w3.org/2000/svg" xmlns:xlink="http://www.w3.org/1999/xlink" width="64px" height="64px" viewBox="0 0 978 978" xml:space="preserve">
<g id="SVGRepo_bgCarrier" stroke-width="0"/>
<g id="SVGRepo_tracerCarrier" stroke-linecap="round" stroke-linejoin="round"/>
<g id="SVGRepo_iconCarrier"> <g> <path d="M0,903c0,33.1,26.9,60,60,60h160c33.1,0,60-26.9,60-60V75c0-33.1-26.9-60-60-60H60C26.9,15,0,41.9,0,75V903z"/> <path d="M409,15c-33.1,0-60,26.9-60,60v828c0,33.1,26.9,60,60,60h160c33.1,0,60-26.9,60-60V75c0-33.1-26.9-60-60-60H409z"/> <path d="M758,963h160c33.1,0,60-26.9,60-60V75c0-33.1-26.9-60-60-60H758c-33.1,0-60,26.9-60,60v828C698,936.1,724.9,963,758,963z"/> </g> </g>
</svg>