<!DOCTYPE svg PUBLIC "-//W3C//DTD SVG 1.1//EN" "http://www.w3.org/Graphics/SVG/1.1/DTD/svg11.dtd">
<!-- Uploaded to: SVG Repo, www.svgrepo.com, Transformed by: SVG Repo Mixer Tools -->
<svg width="96px" height="96px" viewBox="0 -0.5 25 25" fill="none" xmlns="http://www.w3.org/2000/svg">
<g id="SVGRepo_bgCarrier" stroke-width="0"/>
<g id="SVGRepo_tracerCarrier" stroke-linecap="round" stroke-linejoin="round"/>
<g id="SVGRepo_iconCarrier"> <path fill-rule="evenodd" clip-rule="evenodd" d="M5.5 11.1455C5.49956 8.21437 7.56975 5.69108 10.4445 5.11883C13.3193 4.54659 16.198 6.08477 17.32 8.79267C18.4421 11.5006 17.495 14.624 15.058 16.2528C12.621 17.8815 9.37287 17.562 7.3 15.4895C6.14763 14.3376 5.50014 12.775 5.5 11.1455Z" stroke="#E6E6E6&lt;svg viewBox=" 0="" 24="" 24"="" fill="none" xmlns="http://www.w3.org/2000/svg">
<g id="SVGRepo_bgCarrier" stroke-width="0"/>
<g id="SVGRepo_tracerCarrier" stroke-linecap="round" stroke-linejoin="round"/>
<g id="SVGRepo_iconCarrier"> <path opacity="0.1" d="M17 10C17 13.866 13.866 17 10 17C6.13401 17 3 13.866 3 10C3 6.13401 6.13401 3 10 3C13.866 3 17 6.13401 17 10Z" fill="#E6E6E6E6E6E6"/> <path d="M15 15L21 21" stroke="#E6E6E6E6E6E6" stroke-width="2" stroke-linecap="round" stroke-linejoin="round"/> <path d="M17 10C17 13.866 13.866 17 10 17C6.13401 17 3 13.866 3 10C3 6.13401 6.13401 3 10 3C13.866 3 17 6.13401 17 10Z" stroke="#E6E6E6E6E6E6" stroke-width="2"/> </g>" stroke-width="1.5" stroke-linecap="round" stroke-linejoin="round"&gt;</path> <path d="M15.989 15.4905L19.5 19.0015" stroke="#E6E6E6&lt;svg viewBox=" 0="" 24="" 24"="" fill="none" xmlns="http://www.w3.org/2000/svg">
<g id="SVGRepo_bgCarrier" stroke-width="0"/>
<g id="SVGRepo_tracerCarrier" stroke-linecap="round" stroke-linejoin="round"/>
<g id="SVGRepo_iconCarrier"> <path opacity="0.1" d="M17 10C17 13.866 13.866 17 10 17C6.13401 17 3 13.866 3 10C3 6.13401 6.13401 3 10 3C13.866 3 17 6.13401 17 10Z" fill="#E6E6E6E6E6E6"/> <path d="M15 15L21 21" stroke="#E6E6E6E6E6E6" stroke-width="2" stroke-linecap="round" stroke-linejoin="round"/> <path d="M17 10C17 13.866 13.866 17 10 17C6.13401 17 3 13.866 3 10C3 6.13401 6.13401 3 10 3C13.866 3 17 6.13401 17 10Z" stroke="#E6E6E6E6E6E6" stroke-width="2"/> </g>" stroke-width="1.5" stroke-linecap="round" stroke-linejoin="round"&gt;</path> </g>
</svg>